<svg width="18" height="19" viewBox="0 0 18 19" fill="none" xmlns="http://www.w3.org/2000/svg">
<path d="M16.1645 0H0.950855C0.425032 0 0 0.447 0 1V3.59C0 4.113 0.202532 4.627 0.554348 4.997L5.70513 10.414V18C5.70513 18.347 5.87628 18.668 6.15678 18.851C6.30892 18.95 6.48198 19 6.65598 19C6.80146 19 6.94694 18.965 7.08101 18.895L10.8844 16.895C11.2068 16.725 11.4103 16.379 11.4103 16V10.414L16.561 4.997C16.9129 4.627 17.1154 4.113 17.1154 3.59V1C17.1154 0.447 16.6904 0 16.1645 0ZM9.78715 9.293C9.60839 9.48 9.50855 9.734 9.50855 10V15.382L7.60684 16.382V10C7.60684 9.734 7.507 9.48 7.32824 9.293L1.90171 3.59V2H15.2146L15.2165 3.583L9.78715 9.293Z" fill="#FDFDFF"/>
</svg>
